<?xml version="1.0" standalone="no"?>
<!DOCTYPE svg PUBLIC "-//W3C//DTD SVG 20010904//EN"
 "http://www.w3.org/TR/2001/REC-SVG-20010904/DTD/svg10.dtd">
<svg version="1.0" xmlns="http://www.w3.org/2000/svg"
 width="758.000000pt" height="1280.000000pt" viewBox="0 0 758.000000 1280.000000"
 preserveAspectRatio="xMidYMid meet">
<metadata>
Created by potrace 1.15, written by Peter Selinger 2001-2017
</metadata>
<g transform="translate(0.000000,1280.000000) scale(0.100000,-0.100000)"
fill="#000000" stroke="none">
<path d="M4570 12030 c-590 -29 -1211 -202 -1845 -515 -656 -323 -1093 -663
-1351 -1050 -116 -175 -186 -340 -230 -545 -26 -119 -26 -401 0 -518 34 -160
116 -362 145 -362 9 1 55 61 111 148 208 321 419 583 674 837 529 527 1090
806 1736 865 343 31 707 -14 975 -121 454 -181 698 -560 734 -1145 42 -673
-203 -1285 -774 -1934 -106 -121 -960 -893 -1740 -1574 -388 -339 -602 -558
-786 -803 -255 -340 -409 -677 -465 -1019 -24 -145 -24 -399 -1 -502 60 -261
208 -427 463 -518 240 -86 581 -97 851 -29 93 24 274 102 287 124 4 6 -6 53
-23 104 -62 190 -89 328 -98 507 -11 223 29 497 108 733 83 254 279 604 474
847 182 228 325 369 844 834 516 461 1108 988 1381 1228 447 393 806 916 974
1419 94 283 130 515 129 829 0 315 -37 556 -125 808 -220 639 -755 1097 -1483
1270 -285 68 -637 98 -965 82z"/>
<path d="M2765 2453 c-92 -7 -250 -26 -395 -49 -222 -34 -874 -155 -883 -163
-4 -4 11 -46 33 -93 96 -206 109 -404 50 -818 -65 -467 -38 -673 111 -822 83
-83 232 -137 377 -138 72 0 285 31 697 101 160 27 347 59 417 71 96 16 129 25
132 37 34 115 148 839 166 1047 24 291 -37 523 -176 662 -118 117 -319 180
-529 165z"/>
</g>
</svg>
